<?xml version="1.0" encoding="UTF-8"?>
<svg id="Layer_2" data-name="Layer 2" xmlns="http://www.w3.org/2000/svg" viewBox="0 0 1531.49 467.54">
  <defs>
    <style>
      .cls-1, .cls-2 {
        stroke-width: 0px;
      }

      .cls-2 {
        fill: #0add73;
      }
    </style>
  </defs>
  <g id="Layer_2-2" data-name="Layer 2">
    <g>
      <g>
        <path class="cls-1" d="M1170.12,179.62c-3.53-1.02-7.14-1.84-10.59-3.1-21.17-7.79-36.16-22.41-37.81-44.81-2.06-28.07-2.2-56.55.07-84.6,2.18-26.91,27.6-47.03,54.81-47.05,99.45-.08,198.9-.07,298.35,0,26.14.02,48.78,18.14,55.08,43.66.39,1.56.98,3.08,1.47,4.61v82.99c-3.24,11.05-7.31,21.57-15.52,30.22-9.46,9.96-21.38,14.89-34.33,18.08h-311.53ZM1325.55,134.41c47.32,0,94.64,0,141.97,0,14.1,0,17.87-3.68,17.87-17.42,0-18.98.03-37.96-.01-56.94-.02-10.08-4.62-14.66-14.88-14.78-8.72-.1-17.43-.02-26.15-.02-86.96,0-173.93,0-260.89,0-12.83,0-16.86,3.97-16.86,16.49,0,18.57,0,37.13,0,55.7,0,13.09,3.87,16.96,17,16.97,47.32,0,94.64,0,141.97,0Z"/>
        <path class="cls-1" d="M685.37,179.62c-2.56-.71-5.1-1.45-7.67-2.11-25.76-6.67-43.17-28.89-43.21-55.23-.03-21.66-.03-43.33,0-64.99.05-32.3,25.15-57.26,57.57-57.26,98.8,0,197.61,0,296.41,0,31.72,0,56.97,25,57.02,56.46.04,21.46,0,42.91,0,64.37,0,29.37-18.25,51.62-47.19,57.6-.93.19-1.77.77-2.65,1.17-103.43,0-206.86,0-310.29,0ZM839.58,134c48.39,0,96.78,0,145.17,0,10.37,0,14.63-4.3,14.64-14.75.02-19.61.02-39.22,0-58.83-.01-10.83-4.24-15.16-14.96-15.16-96.16-.02-192.31-.02-288.47,0-11.03,0-15.35,4.4-15.37,15.49-.02,19.2-.02,38.39,0,57.59,0,11.56,4.12,15.66,15.68,15.66,47.77,0,95.53,0,143.3,0Z"/>
        <path class="cls-1" d="M195.64,179.62c-5.07-1.6-10.35-2.73-15.17-4.89-21.4-9.56-34.05-26.08-34.49-49.43-.8-41.45-.22-82.93-.22-124.84h46.15v6.47c0,36.54,0,73.07,0,109.61,0,11.53,5.32,17.53,16.72,17.78,76.14,1.63,150.8-6.61,222.46-33.93,24.13-9.2,47.03-20.74,67.02-37.3,19.52-16.16,33.26-35.21,30.12-62.63h43.75c2.85,14.75,1.51,29.38-4,43.38-9.65,24.54-26.78,43.45-47.54,59.24-35.19,26.78-75.56,42.63-117.84,54.15-48.86,13.31-98.75,19.74-149.32,21.4-1.78.06-3.54.65-5.3,1h-52.34Z"/>
        <path class="cls-1" d="M0,179.62V.45h44.63c.14,1.32.42,2.68.42,4.05.02,56.73.02,113.46.01,170.19,0,1.65-.13,3.29-.2,4.94H0Z"/>
      </g>
      <g>
        <path class="cls-2" d="M204.54,383.12c0,57.41-38.35,84.42-79.11,84.42H0v-168.84h125.42c40.76,0,79.11,27.01,79.11,84.42ZM141.82,383.12c0-31.36-22.19-31.36-35.7-31.36h-43.42v62.71h43.42c13.51,0,35.7,0,35.7-31.36Z"/>
        <path class="cls-2" d="M280.68,346.94v15.68h115.77v41h-115.77v15.68h115.77v48.24h-178.49v-168.84h178.49v48.24h-115.77Z"/>
        <path class="cls-2" d="M588.16,414.48v53.06h-173.66v-168.84h62.71v115.77h110.95Z"/>
        <path class="cls-2" d="M659.97,467.54h-62.71v-168.84h62.71v168.84Z"/>
        <path class="cls-2" d="M901.31,298.7l-69.95,168.84h-93.1l-69.95-168.84h68.98l47.52,125.42,47.52-125.42h68.98Z"/>
        <path class="cls-2" d="M973.02,346.94v15.68h115.77v41h-115.77v15.68h115.77v48.24h-178.48v-168.84h178.48v48.24h-115.77Z"/>
        <path class="cls-2" d="M1274.23,419.06l29.91,48.48h-74.29l-23.4-39.56h-36.9v39.56h-62.71v-168.84h132.66c38.35,0,64.64,27.01,64.64,64.64,0,24.6-11.34,44.86-29.91,55.72ZM1169.55,374.92h57.89c6.27,0,13.99,0,13.99-11.58s-7.72-11.58-13.99-11.58h-57.89v23.15Z"/>
        <path class="cls-2" d="M1297.05,298.7h72.36l44.86,62.71,44.86-62.71h72.36l-85.87,113.36v55.48h-62.71v-55.48l-85.87-113.36Z"/>
      </g>
    </g>
  </g>
</svg>